<svg xmlns="http://www.w3.org/2000/svg" viewBox="0 0 448 512">
  <defs>
    <style>.cls-1{fill:#25d366}.cls-2{fill:#fff}</style>
  </defs>
  <rect width="100%" height="100%" fill="none"/>
  <g transform="translate(0,0)">
    <circle cx="224" cy="256" r="224" fill="#2DBE4E"/>
    <circle cx="224" cy="256" r="192" fill="#25D366"/>
    <g transform="translate(84 128) scale(0.8)">
      <path class="cls-2" d="M310.9 199.8c-6.8-3.4-40.3-19.9-46.5-22.1-6.1-2.2-10.5-3.4-15 3.4-4.5 6.8-17.4 22.1-21.3 26.6-3.9 4.5-7.8 5-14.6 1.7-6.8-3.4-28.7-10.6-54.6-33.6-20.2-17.8-33.8-39.8-37.7-46.6-3.9-6.8-.4-10.5 3-14 3.1-3.1 6.8-8 10.1-12 3.4-4 4.5-6.8 6.8-11.3 2.2-4.5 1.1-8.5.5-11.9-.6-3.4-15-36.6-20.6-50.2-5.4-13.4-10.9-11.6-15-11.8l-12-.6c-4.5 0-11.6 1.7-17.1 8.5s-13.7 11.6-13.7 28.3c0 16.6 8.6 36.1 9.8 39.7 1.1 3.4 14.9 36 43.8 50.5 12.5 6.2 23 9.9 32 12.6 13.4 3.6 25.6 3.1 35 1.8 10.7-1.5 33.1-9.6 37.7-21.4 4.7-11.8 4.7-21.9 3.3-24.9-1.4-3-5.1-4.8-10.6-8.3z"/>
    </g>
  </g>
</svg>